<svg xmlns="http://www.w3.org/2000/svg" fill="none" viewBox="0 0 238 40" height="40" width="238">
<path fill="#F9F9F9" d="M32.8093 31.7423L32.7062 31.6546L32.1982 31.2035L31.9765 31.0101L31.9456 30.9843C31.9249 30.9663 31.8966 30.9431 31.863 30.9121C31.7857 30.8451 31.6851 30.7574 31.5536 30.6491C31.5382 30.6362 31.5201 30.6208 31.5021 30.6079C31.3087 30.4506 31.0689 30.2521 30.7776 30.0304C30.182 29.5688 29.3956 28.9965 28.4545 28.388C26.3377 27.0215 23.4499 25.4926 20.276 24.7656C19.634 24.616 18.9817 24.5026 18.3216 24.4278C17.7028 24.353 17.0789 24.3195 16.4523 24.3273C14.3562 24.3505 12.3064 24.8378 10.4242 25.5494C9.9962 25.7118 9.57335 25.8845 9.16598 26.065C4.83953 27.9781 1.61661 30.8502 1.10868 31.3169L0 32.3327L1.12931 33.3305C1.90797 34.0137 8.92361 39.985 16.4704 39.985C16.522 39.985 16.5735 39.9824 16.6251 39.9824C23.5943 39.9076 30.0324 34.6918 31.6542 33.2738C31.8012 33.1475 31.9095 33.0495 31.9765 32.9902H31.9791L32.0564 32.9154L32.2008 32.7813L32.3194 32.6731L32.3942 32.6034L32.536 32.472L32.9382 32.1007L33.08 31.9692L32.8145 31.7346L32.8093 31.7423ZM16.6096 38.6701C9.4728 38.75 2.67889 32.9464 1.99563 32.343L1.96469 32.3173L1.99563 32.2889C2.45457 31.8686 5.71617 28.9552 10.0142 27.1247C10.4371 26.9468 10.8728 26.774 11.3137 26.6219C12.9458 26.047 14.6939 25.6628 16.4678 25.6447C17.5198 25.6344 18.5692 25.7505 19.5876 25.9593C20.5184 26.1527 21.4285 26.4208 22.3052 26.7379C26.0747 28.1096 29.1764 30.4145 30.4759 31.4639C30.5481 31.5206 30.6126 31.5773 30.6744 31.6263C30.873 31.7861 31.0096 31.9047 31.0792 31.9692L31.1102 31.9976L31.0792 32.0233C30.9606 32.1316 30.6641 32.3998 30.2103 32.771C30.0866 32.8767 29.9473 32.9876 29.8004 33.1062C27.418 34.9986 22.1556 38.6056 16.6096 38.6675V38.6701Z"></path>
<path fill="#10AFE7" d="M31.0794 31.9762C30.3961 31.3754 23.6022 25.5744 16.468 25.6492C9.33114 25.7291 2.66873 31.6745 1.99578 32.2907L1.96484 32.3191L1.99578 32.3449C2.67904 32.9482 9.47295 38.7492 16.6098 38.6719C23.744 38.5945 30.4064 32.6465 31.0794 32.0303L31.1103 32.0045L31.0794 31.9762ZM16.5943 37.357C16.5531 37.357 16.5092 37.3596 16.468 37.3596C11.3397 37.3596 6.25261 33.9821 4.02493 32.2933C6.24746 30.5092 11.2572 27.0234 16.4809 26.9641C21.7123 26.9202 26.7968 30.29 29.058 32.0252C26.838 33.8067 21.8232 37.3003 16.5943 37.357Z"></path>
<path fill="#288DF2" d="M29.0575 32.0244C26.8375 33.806 21.8227 37.2995 16.5938 37.3562C16.5525 37.3562 16.5087 37.3588 16.4675 37.3588C11.3391 37.3588 6.25209 33.9813 4.02441 32.2926C6.24694 30.5084 11.2566 27.0226 16.4803 26.9633C21.7118 26.9195 26.7963 30.2893 29.0575 32.0244Z"></path>
<path fill="#F9F9F9" d="M63.2908 31.3236C62.7802 30.857 59.5599 27.9874 55.2335 26.0717C54.8261 25.8912 54.4032 25.7185 53.9752 25.5561C52.0905 24.8471 50.0407 24.3598 47.9445 24.334H47.7924C47.2148 24.334 46.645 24.3675 46.0804 24.432C45.4177 24.5093 44.7654 24.6253 44.1234 24.7749C40.9495 25.5071 38.0592 27.036 35.9424 28.4025C35.0039 29.0084 34.2123 29.5807 33.6219 30.0422C33.3331 30.264 33.0933 30.4573 32.8999 30.612C32.8819 30.6275 32.8638 30.643 32.8484 30.6559C32.7169 30.7641 32.6137 30.8544 32.539 30.9214C32.508 30.9472 32.4797 30.9704 32.4565 30.991L32.2064 31.2102L31.6933 31.6614L31.5901 31.7542L31.3271 31.9837L31.4664 32.1126L31.8686 32.4838L32.013 32.6179L32.0878 32.6875L32.2038 32.7958L32.3507 32.9299L32.4255 32.9995L32.4333 33.0072C32.4951 33.0639 32.6034 33.1619 32.7478 33.2883C34.3644 34.7011 40.8025 39.9221 47.7795 39.9969C47.8285 39.9969 47.8826 39.9994 47.9342 39.9994C55.4758 39.9994 62.4915 34.0282 63.2753 33.3424L64.4046 32.3472L63.2959 31.3314L63.2908 31.3236ZM62.4012 32.3472C61.7154 32.9505 54.9215 38.7516 47.7872 38.6742C42.2412 38.6149 36.9814 35.0054 34.5965 33.1129C34.4469 32.9943 34.3103 32.8835 34.1839 32.7778C33.7302 32.4065 33.4336 32.1384 33.315 32.0301L33.2867 32.0043L33.3176 31.9759C33.3898 31.9115 33.5265 31.7954 33.7224 31.633C33.7817 31.584 33.8488 31.5273 33.921 31.4706C35.2204 30.4212 38.3222 28.1189 42.0891 26.7447C42.9657 26.4249 43.8759 26.1568 44.8093 25.966C45.8277 25.7546 46.8745 25.6386 47.929 25.6515C49.7029 25.6695 51.451 26.0537 53.0831 26.6286C53.524 26.7833 53.9598 26.9535 54.3826 27.1314C58.6807 28.9594 61.9423 31.8728 62.4012 32.2956L62.4296 32.324L62.4012 32.3498V32.3472Z"></path>
<path fill="#10AFE7" d="M62.4007 32.2913C61.9417 31.871 58.6801 28.9576 54.3821 27.127C53.9592 26.9491 53.5235 26.779 53.0826 26.6243C51.4505 26.0493 49.7024 25.6652 47.9285 25.6471C46.8765 25.6368 45.8271 25.7528 44.8087 25.9617C43.8753 26.155 42.9626 26.4232 42.0886 26.7403C38.319 28.1145 35.2199 30.4169 33.9204 31.4662C33.8482 31.523 33.7838 31.5797 33.7219 31.6287C33.5233 31.7885 33.3867 31.9071 33.3171 31.9716L33.2861 31.9999L33.3145 32.0257C33.4331 32.134 33.7296 32.4021 34.1834 32.7734C34.3097 32.8791 34.4464 32.99 34.5959 33.1086C36.9809 35.001 42.2407 38.608 47.7867 38.6699C54.9209 38.7498 61.7123 32.9461 62.4007 32.3428L62.429 32.3171L62.4007 32.2887V32.2913ZM47.8022 37.3575C43.7181 37.3163 39.7681 35.1763 37.1743 33.3922C36.558 32.9694 36.0166 32.562 35.5705 32.2139C35.488 32.1469 35.4107 32.0876 35.3359 32.0283C35.3849 31.9896 35.439 31.9484 35.4932 31.9097C37.0196 30.7546 39.6727 28.9756 42.7564 27.8954C44.3498 27.3385 46.0566 26.9672 47.7815 26.9672H47.913C49.3234 26.9827 50.7286 27.2559 52.0693 27.6865C52.5334 27.8309 52.9898 27.9959 53.4358 28.1764C56.4267 29.3753 58.9741 31.1981 60.3715 32.3042C58.1078 34.0419 53.0259 37.4065 47.8022 37.3601V37.3575Z"></path>
<path fill="#288DF2" d="M60.3729 32.2999C58.1091 34.0376 53.0272 37.4022 47.8035 37.3558C42.5721 37.3017 37.5572 33.8056 35.3398 32.024C37.583 30.3043 42.603 26.9629 47.7855 26.9629H47.917C53.0865 27.017 58.1633 30.5467 60.3729 32.2999Z"></path>
<path fill="#F9F9F9" d="M32.9764 32.2385L32.9352 32.1096L32.8114 31.7435L32.7366 31.5244L32.5845 31.0732L32.5716 31.0345C32.5613 31.0035 32.5484 30.9649 32.533 30.9185C32.5201 30.8875 32.5072 30.8463 32.4943 30.8076C32.4272 30.622 32.3293 30.3538 32.2003 30.029C32.0869 29.7428 31.9477 29.405 31.7852 29.0312C31.6125 28.6316 31.4114 28.1881 31.1793 27.7189C30.1325 25.5738 28.4927 22.7789 26.2006 20.4456C25.6797 19.9145 25.1254 19.4066 24.5375 18.9373C23.8878 18.4191 23.1968 17.9447 22.4671 17.5348C20.6004 16.488 18.5352 15.8847 16.5086 15.565C16.06 15.4928 15.6139 15.4361 15.1705 15.3922C10.5114 14.9178 6.34998 15.7867 5.67961 15.9337L4.20996 16.2611L4.69211 17.6895C4.91385 18.3392 6.33966 22.3432 9.16552 26.0714C9.43624 26.4272 9.71986 26.783 10.0164 27.1284C11.3442 28.6909 12.9325 30.1424 14.7992 31.1892C17.9963 32.9836 21.7787 33.4735 24.9501 33.4735C26.8838 33.4735 28.5933 33.293 29.8025 33.1126C30.1506 33.061 30.4574 33.0094 30.7178 32.963C31.1432 32.8883 31.4423 32.8238 31.5841 32.7929L31.8729 32.731L31.9167 32.7207L32.0817 32.6846L32.1978 32.6588L32.3911 32.6175L32.5098 32.5918L32.6954 32.5505L33.0538 32.4706L32.9764 32.2437V32.2385ZM15.4412 30.0419C13.8607 29.1524 12.4864 27.9483 11.3158 26.6257C11.0039 26.275 10.7048 25.9167 10.4237 25.5557C7.57727 21.9126 6.13598 17.8519 5.93745 17.2666L5.92455 17.2305L5.96581 17.2202C6.56914 17.0862 10.7589 16.207 15.3329 16.7303C15.7841 16.7819 16.2353 16.8489 16.6917 16.9289C18.4501 17.2408 20.2188 17.7874 21.82 18.6872C23.0009 19.3499 24.0683 20.1929 25.0197 21.1263C25.9969 22.0828 26.8529 23.1347 27.5929 24.1918C28.619 25.6511 29.4235 27.1207 30.0242 28.3557C30.3285 28.9899 30.5812 29.5597 30.7797 30.0393C31.0839 30.7689 31.2644 31.282 31.3237 31.4625L31.3366 31.4986L31.2979 31.5089C31.2128 31.5269 31.0607 31.5579 30.8467 31.6017C30.839 31.6043 30.8313 31.6043 30.8235 31.6069C30.7771 31.6146 30.7255 31.6249 30.674 31.6352C30.1351 31.7358 29.31 31.8698 28.2916 31.9807C24.9836 32.3339 19.6387 32.3984 15.4412 30.0444V30.0419Z"></path>
<path fill="#10AFE7" d="M31.3246 31.461C31.0332 30.5972 28.0424 22.1793 21.8183 18.6857C15.5968 15.1948 6.85363 17.0228 5.9641 17.2187L5.92285 17.229L5.93574 17.2651C6.22967 18.1314 9.22054 26.5468 15.4421 30.0403C21.6636 33.5313 30.4093 31.7033 31.2988 31.5074L31.3375 31.4971L31.3246 31.461ZM16.0866 28.8956C11.5307 26.338 8.81316 20.8721 7.71737 18.2397C10.5045 17.8246 16.6642 17.3012 21.1763 19.833C25.678 22.3623 28.4394 27.8875 29.5378 30.489C26.7455 30.9066 20.5936 31.4249 16.0866 28.8956Z"></path>
<path fill="#288DF2" d="M29.5382 30.4856C26.7459 30.9033 20.594 31.4215 16.087 28.8922C11.5311 26.3346 8.81357 20.8687 7.71777 18.2363C10.505 17.8212 16.6646 17.2978 21.1767 19.8297C25.6784 22.3589 28.4398 27.8841 29.5382 30.4856Z"></path>
<path fill="#F9F9F9" d="M58.7192 15.9337C58.0514 15.7867 53.8874 14.9178 49.2283 15.3922C48.7874 15.4361 48.3388 15.4954 47.8902 15.565C45.8636 15.8873 43.7984 16.488 41.9316 17.5348C41.1968 17.9473 40.5058 18.4217 39.8561 18.9425C39.2656 19.4117 38.7113 19.9196 38.1931 20.4508C35.9009 22.7841 34.2611 25.5763 33.2169 27.7214C32.9874 28.1933 32.7889 28.629 32.6135 29.026C32.4511 29.4025 32.3119 29.7402 32.1959 30.029C32.0669 30.3564 31.969 30.622 31.9045 30.8076C31.889 30.8463 31.8761 30.885 31.8658 30.9159C31.8504 30.9597 31.8375 31.001 31.8271 31.0319L31.6596 31.5244L31.5848 31.7487L31.461 32.107L31.4172 32.236L31.3398 32.4654L31.7034 32.5479L31.8864 32.5866L32.0076 32.6124L32.1959 32.6536L32.3145 32.6794L32.4769 32.7155L32.5207 32.7258L32.8095 32.7877C32.9513 32.8186 33.2478 32.8857 33.6784 32.9579C33.9388 33.0043 34.243 33.0558 34.5937 33.1074C35.3027 33.2131 36.1768 33.3188 37.172 33.3859C37.8785 33.4348 38.6443 33.4684 39.4461 33.4684C42.6175 33.4684 46.3999 32.9785 49.597 31.184C51.0383 30.3745 52.3146 29.3251 53.4336 28.1675C53.7636 27.8271 54.0782 27.4791 54.3773 27.1233C54.6738 26.7752 54.96 26.4194 55.2281 26.0662C58.054 22.338 59.4798 18.3314 59.7015 17.6817L60.1837 16.256L58.714 15.9285L58.7192 15.9337ZM58.4588 17.264C58.2602 17.8519 56.8215 21.9126 53.975 25.5531C53.694 25.9167 53.3949 26.275 53.0829 26.6231C52.7606 26.9866 52.4255 27.3399 52.0722 27.6802C51.1414 28.5826 50.105 29.3921 48.9576 30.0393C44.7575 32.3958 39.4126 32.3288 36.1046 31.9755C35.8932 31.9523 35.6921 31.9291 35.4987 31.9034C34.7587 31.8105 34.1502 31.7074 33.7248 31.6301C33.6732 31.6197 33.6217 31.6094 33.5753 31.6017C33.5675 31.5991 33.5598 31.5991 33.5521 31.5966C33.3381 31.5553 33.1859 31.5218 33.1008 31.5037L33.0622 31.4934L33.0751 31.4573C33.1344 31.2768 33.3174 30.7663 33.6165 30.0367C33.8176 29.5546 34.0729 28.9796 34.3797 28.3402C34.9779 27.1104 35.7772 25.6537 36.7956 24.1995C37.5407 23.1399 38.3993 22.0802 39.3765 21.1211C40.3279 20.1878 41.3953 19.3447 42.5762 18.6821C44.1799 17.7823 45.9487 17.2383 47.7071 16.9237C48.1635 16.8438 48.6147 16.7793 49.0659 16.7252C53.6398 16.2018 57.8296 17.081 58.433 17.2151L58.4716 17.2254L58.4588 17.2615V17.264Z"></path>
<path fill="#10AFE7" d="M58.432 17.2187C57.5425 17.0201 48.7993 15.1922 42.5752 18.6857C36.3537 22.1792 33.3654 30.5998 33.0715 31.4609L33.0586 31.497L33.0973 31.5073C33.9868 31.7059 42.7299 33.5338 48.954 30.0403C55.1755 26.5468 58.1638 18.1288 58.4578 17.2651L58.4707 17.229L58.432 17.2187ZM48.3094 28.8956C43.8051 31.4248 37.6532 30.9066 34.8583 30.4889C35.9566 27.8901 38.7129 22.3623 43.2198 19.833C47.7242 17.3038 53.8761 17.822 56.671 18.2397C55.5726 20.8411 52.8164 26.3663 48.3094 28.8956Z"></path>
<path fill="#288DF2" d="M56.6721 18.2386C55.5737 20.8401 52.8175 26.3653 48.3105 28.8946C43.8062 31.4238 37.6543 30.9056 34.8594 30.4879C35.9577 27.889 38.714 22.3613 43.2209 19.832C47.7253 17.3027 53.8772 17.821 56.6721 18.2386Z"></path>
<path fill="#F9F9F9" d="M32.8663 20.5805C32.7038 19.7117 32.4847 18.8428 32.1985 17.9894C31.8865 17.0483 31.4869 16.1253 30.9918 15.2461C29.9399 13.3769 28.4805 11.7913 26.9129 10.4635C26.5571 10.1644 26.1987 9.87822 25.8377 9.60493C22.1095 6.80237 18.1182 5.38949 17.4685 5.17034L16.0427 4.69336L15.7178 6.16038C15.5734 6.81784 14.7432 10.8399 15.1712 15.3905C15.2124 15.8314 15.2666 16.2774 15.3336 16.7286C15.6456 18.8402 16.2592 21.0034 17.3602 22.9474C17.6515 23.4656 17.9764 23.9606 18.3245 24.435C18.7164 24.9713 19.1392 25.4818 19.5904 25.9665C22.3157 28.9135 25.8867 30.8807 28.2949 31.979C29.0813 32.3374 29.7439 32.6029 30.2132 32.7782C30.422 32.8582 30.5922 32.9201 30.7185 32.9613C30.7881 32.9871 30.8397 33.0051 30.881 33.018L31.6545 33.2784C31.8014 33.1521 31.9097 33.0541 31.9768 32.9948H31.9793L32.0567 32.9201L32.2011 32.786L32.348 32.9201L32.4228 32.9897L32.4666 32.7911L32.4821 32.7138L32.5105 32.5823L32.5337 32.4766L32.6265 32.0667L32.6342 32.028C32.6523 31.9481 32.6781 31.8243 32.7116 31.6541C32.7219 31.6155 32.7296 31.5691 32.7399 31.5226C32.776 31.3215 32.8225 31.074 32.8689 30.7878C32.8792 30.7285 32.8869 30.6692 32.8972 30.6099C32.9153 30.4939 32.9307 30.3779 32.9514 30.2541C33.0519 29.558 33.1551 28.6969 33.2195 27.7197C33.3613 25.6777 33.3536 23.1382 32.8663 20.578V20.5805ZM22.3054 26.7426C21.5912 26.1418 20.9054 25.4844 20.2763 24.7676C19.6111 24.0096 19.0052 23.1872 18.5024 22.2977C17.5587 20.6218 16.9966 18.7629 16.6898 16.9246C16.6125 16.4682 16.5532 16.0145 16.5068 15.5633C16.0298 11.09 16.8703 7.03699 17.0018 6.44399L17.0095 6.40532L17.0482 6.41821C17.6361 6.61674 21.7021 8.04767 25.353 10.8863C25.7217 11.1725 26.0878 11.4767 26.4437 11.7913C27.756 12.9567 28.9601 14.3206 29.8471 15.8907C30.6773 17.3603 31.2084 18.964 31.5333 20.578C32.1676 23.7131 32.0283 26.8637 31.7834 29.0269C31.7241 29.5606 31.6545 30.0324 31.59 30.4295C31.5797 30.5068 31.5668 30.579 31.5565 30.6512C31.5488 30.7002 31.5384 30.7492 31.5333 30.7956C31.4482 31.2777 31.3812 31.6026 31.3502 31.7418L31.3425 31.7805L31.3038 31.7676C31.2213 31.7392 31.0718 31.6877 30.8681 31.6129C30.8552 31.6077 30.8423 31.6026 30.8294 31.6C30.7263 31.5613 30.6102 31.5149 30.4813 31.4659C28.8647 30.842 25.3479 29.3028 22.3106 26.74L22.3054 26.7426Z"></path>
<path fill="#10AFE7" d="M29.8447 15.8936C26.3356 9.68 17.9096 6.71244 17.0459 6.4211L17.0072 6.4082L16.9995 6.44688C16.8009 7.33895 14.9935 16.087 18.5026 22.3005C22.0117 28.5141 30.4377 31.4817 31.3015 31.773L31.3402 31.7859L31.3479 31.7473C31.5464 30.8578 33.3538 22.1072 29.8447 15.8936ZM30.3294 29.9915C27.7305 28.9009 22.1922 26.155 19.6474 21.6508C17.1052 17.1492 17.6131 10.9846 18.0256 8.19751C20.6607 9.28553 26.1319 11.9927 28.6974 16.5407C31.2654 21.0913 30.76 27.1709 30.3294 29.9915Z"></path>
<path fill="#288DF2" d="M30.328 29.9893C27.7291 28.8987 22.1908 26.1528 19.646 21.6486C17.1038 17.147 17.6117 10.9824 18.0242 8.19531C20.6593 9.28333 26.1305 11.9905 28.6959 16.5385C31.264 21.0891 30.7586 27.1687 30.328 29.9893Z"></path>
<path fill="#F9F9F9" d="M48.6809 6.16297L48.3535 4.69336L46.9277 5.17291C46.2805 5.39207 42.2892 6.80495 38.5584 9.61009C38.1948 9.8808 37.8339 10.167 37.4832 10.4661C35.913 11.7913 34.4563 13.3821 33.4043 15.2487C32.9093 16.1279 32.5122 17.0483 32.1976 17.992C31.9114 18.848 31.6923 19.7168 31.5324 20.5831C31.0451 23.1433 31.0374 25.6803 31.1766 27.7223C31.2462 28.702 31.3468 29.5632 31.4499 30.2619C31.4654 30.3831 31.4834 30.5017 31.5015 30.6125C31.5092 30.6796 31.5195 30.7414 31.5298 30.8007C31.5763 31.0843 31.6201 31.3267 31.6562 31.5278C31.6665 31.5742 31.6742 31.6206 31.6845 31.6593C31.7155 31.8295 31.7413 31.9532 31.7619 32.0331L31.8624 32.4818L31.8857 32.59L31.914 32.7215L31.9295 32.7989L31.9733 33L32.0507 32.9278L32.1951 32.7937L32.342 32.9278L32.4168 32.9974L32.4245 33.0051C32.4864 33.0619 32.5947 33.1598 32.7391 33.2862L33.5126 33.0258C33.5538 33.0129 33.6106 32.9922 33.6776 32.969C33.8039 32.9252 33.9715 32.8633 34.1804 32.786C34.5413 32.6493 35.0157 32.4611 35.5701 32.2213C35.7377 32.1466 35.9156 32.0692 36.0987 31.9867C37.937 31.1462 40.456 29.8029 42.7559 27.9028C43.4701 27.3124 44.1611 26.6704 44.8057 25.9742C45.2543 25.4895 45.6797 24.979 46.0716 24.4402C46.4223 23.9658 46.742 23.4708 47.0359 22.9551C48.1369 21.0111 48.748 18.848 49.0625 16.7364C49.1321 16.2852 49.1837 15.8417 49.2249 15.3983C49.6504 10.8476 48.8227 6.82815 48.6783 6.16812L48.6809 6.16297ZM47.7063 16.9272C47.3995 18.7655 46.8374 20.6244 45.8937 22.3002C45.391 23.1923 44.7851 24.0148 44.1173 24.7728C43.4856 25.4895 42.8023 26.147 42.0881 26.7451C39.0508 29.3079 35.534 30.8471 33.92 31.4711C33.791 31.5201 33.675 31.5665 33.5719 31.6051C33.559 31.6077 33.5461 31.6129 33.5332 31.618C33.3269 31.6954 33.1774 31.7444 33.0975 31.7727L33.0588 31.7856L33.0511 31.747C33.0201 31.6077 32.9505 31.2751 32.868 30.7904C32.8603 30.7466 32.8525 30.7002 32.8448 30.6538C32.8345 30.5816 32.8216 30.5094 32.8087 30.4295C32.7468 30.0324 32.6798 29.558 32.6205 29.0269C32.3755 26.8637 32.2363 23.7131 32.8706 20.5805C33.198 18.9666 33.7292 17.3629 34.5568 15.8933C35.4438 14.3257 36.6427 12.9618 37.9576 11.7964C38.3134 11.4819 38.6796 11.1777 39.0483 10.8889C42.6992 8.05025 46.7704 6.61674 47.3556 6.42079L47.3918 6.4079L47.4021 6.44657C47.5336 7.03957 48.3741 11.0926 47.8971 15.5658C47.8507 16.017 47.7888 16.4708 47.714 16.9272H47.7063Z"></path>
<path fill="#10AFE7" d="M47.3977 6.44688L47.3874 6.4082L47.3513 6.4211C46.485 6.71244 38.0616 9.68258 34.5525 15.8936C31.0434 22.1072 32.8534 30.8578 33.0493 31.7473L33.0571 31.7859L33.0957 31.773C33.9595 31.4817 42.3829 28.5115 45.8946 22.3005C49.4037 16.087 47.5937 7.33895 47.3977 6.44688ZM44.7472 21.6534C42.205 26.155 36.6667 28.9034 34.0652 29.994C33.6372 27.1734 33.1292 21.0939 35.6973 16.5433C38.2653 11.9953 43.7365 9.28811 46.3716 8.20009C46.7815 10.9898 47.292 17.1492 44.7472 21.6534Z"></path>
<path fill="#288DF2" d="M44.747 21.6525C42.2047 26.1542 36.6665 28.9026 34.0649 29.9932C33.6369 27.1726 33.129 21.0931 35.697 16.5424C38.2651 11.9944 43.7363 9.28724 46.3713 8.19922C46.7813 10.9889 47.2918 17.1483 44.747 21.6525Z"></path>
<path fill="#F9F9F9" d="M31.5895 30.4337C31.5457 30.3795 31.4967 30.3202 31.4503 30.2609C31.0661 29.7865 30.5659 29.1394 30.0244 28.353C30.3287 28.9873 30.5814 29.5571 30.7799 30.0366C31.0687 30.2584 31.311 30.4543 31.5044 30.6116C31.5225 30.627 31.5405 30.6425 31.556 30.6554C31.6875 30.7637 31.7906 30.8539 31.8654 30.9184C31.8757 30.8874 31.8886 30.8488 31.904 30.8101C31.8164 30.707 31.7081 30.5806 31.5895 30.4337ZM39.0435 10.888C38.8965 10.4548 38.7366 10.0242 38.5613 9.60914C36.5992 4.80328 33.3608 1.25303 33.1674 1.04419L32.198 0L31.2311 1.04419C31.0352 1.25561 27.7993 4.80328 25.8347 9.60656C25.6645 10.0242 25.4995 10.4522 25.3525 10.888C24.7414 12.6669 24.3418 14.58 24.3418 16.5369C24.3418 17.3465 24.4114 18.1483 24.5352 18.9373C24.6512 19.6798 24.8162 20.4094 25.0199 21.121C25.8166 23.9365 27.1986 26.4735 28.4568 28.3917C29.4417 29.8922 30.3493 31.0164 30.8495 31.5965C30.8521 31.6016 30.8572 31.6068 30.865 31.6145C31.0687 31.8517 31.2002 31.9961 31.2337 32.0322L31.4167 32.2333L31.7029 32.5427L31.8705 32.7232L31.9298 32.7902L32.051 32.9191L32.1954 32.785L32.3424 32.9191L32.461 32.7902L32.5203 32.7232L32.6904 32.5401L32.9715 32.2359L33.1623 32.0322C33.1958 31.9961 33.3273 31.8517 33.531 31.6145C33.5361 31.6068 33.5413 31.6016 33.5464 31.5965C34.0441 31.0138 34.9491 29.8948 35.934 28.3969C37.1922 26.4761 38.5768 23.9391 39.3735 21.121C39.5772 20.4094 39.7422 19.6824 39.8556 18.9424C39.982 18.1535 40.0516 17.3465 40.0516 16.5369C40.0516 14.58 39.6519 12.6669 39.0409 10.888H39.0435ZM36.7951 24.202C36.0371 25.798 35.1605 27.2134 34.3793 28.3427C33.8352 29.1317 33.335 29.784 32.9509 30.2584C32.9019 30.3177 32.8529 30.3769 32.8065 30.4311C32.6853 30.5806 32.5796 30.707 32.4945 30.8101C32.3063 31.0267 32.2006 31.1427 32.2006 31.1427C32.2006 31.1427 32.0948 31.0267 31.9092 30.8101C31.8215 30.707 31.7133 30.5806 31.5947 30.4337C31.5508 30.3795 31.5018 30.3202 31.4554 30.2609C31.0712 29.7865 30.5711 29.1394 30.0296 28.353C29.2432 27.2186 28.3614 25.7954 27.5982 24.1891C27.0465 23.0238 26.554 21.763 26.2034 20.4481C25.8656 19.1848 25.6645 17.8699 25.6645 16.5395C25.6645 14.9152 25.9687 13.3115 26.4483 11.7955C26.5901 11.3417 26.7448 10.9008 26.9176 10.4677C28.8178 5.6077 32.2057 1.93885 32.2057 1.93885C32.2057 1.93885 35.5936 5.6077 37.4939 10.4677C37.664 10.9008 37.8239 11.3469 37.9631 11.7981C38.4427 13.3141 38.7469 14.9178 38.7469 16.5395C38.7469 17.8699 38.5407 19.1873 38.2055 20.4533C37.8548 21.7708 37.3624 23.0367 36.8055 24.202H36.7951Z"></path>
<path fill="#10AFE7" d="M32.1988 1.9375C32.1988 1.9375 25.6602 9.01738 25.6602 16.5407C25.6602 24.0641 32.1988 31.1439 32.1988 31.1439C32.1988 31.1439 38.7375 24.0666 38.7375 16.5407C38.7375 9.0148 32.1988 1.9375 32.1988 1.9375ZM26.9751 16.5407C26.9751 11.3326 30.4584 6.22513 32.1988 3.99494C33.9418 6.22513 37.4225 11.3326 37.4225 16.5407C37.4225 21.7488 33.9418 26.8589 32.1988 29.0865C30.4584 26.8615 26.9751 21.7488 26.9751 16.5407Z"></path>
<path fill="#288DF2" d="M37.421 16.538C37.421 21.746 33.9403 26.8561 32.1973 29.0837C30.457 26.8587 26.9736 21.746 26.9736 16.538C26.9736 11.3299 30.457 6.22237 32.1973 3.99219C33.9403 6.22237 37.421 11.3299 37.421 16.538Z"></path>
<path fill="#F9F9F9" d="M32.9424 4.1123C32.9424 4.52482 32.6072 4.85742 32.1973 4.85742C31.7873 4.85742 31.4521 4.52224 31.4521 4.1123C31.4521 3.70236 31.7873 3.36719 32.1973 3.36719C32.6072 3.36719 32.9424 3.70236 32.9424 4.1123Z"></path>
<path fill="#F9F9F9" d="M30.7051 7.36132C31.1166 7.36132 31.4502 7.02772 31.4502 6.61621C31.4502 6.20469 31.1166 5.87109 30.7051 5.87109C30.2936 5.87109 29.96 6.20469 29.96 6.61621C29.96 7.02772 30.2936 7.36132 30.7051 7.36132Z"></path>
<path fill="#F9F9F9" d="M29.2129 9.96288C29.6244 9.96288 29.958 9.62929 29.958 9.21777C29.958 8.80626 29.6244 8.47266 29.2129 8.47266C28.8014 8.47266 28.4678 8.80626 28.4678 9.21777C28.4678 9.62929 28.8014 9.96288 29.2129 9.96288Z"></path>
<path fill="#F9F9F9" d="M28.1397 12.8965C28.5512 12.8965 28.8848 12.5629 28.8848 12.1514C28.8848 11.7398 28.5512 11.4062 28.1397 11.4062C27.7281 11.4062 27.3945 11.7398 27.3945 12.1514C27.3945 12.5629 27.7281 12.8965 28.1397 12.8965Z"></path>
<path fill="#F9F9F9" d="M27.3916 15.8262C27.8032 15.8262 28.1368 15.4926 28.1368 15.0811C28.1368 14.6695 27.8032 14.3359 27.3916 14.3359C26.9801 14.3359 26.6465 14.6695 26.6465 15.0811C26.6465 15.4926 26.9801 15.8262 27.3916 15.8262Z"></path>
<path fill="#F9F9F9" d="M32.9424 28.8877C32.9424 28.4752 32.6072 28.1426 32.1973 28.1426C31.7873 28.1426 31.4521 28.4778 31.4521 28.8877C31.4521 29.2976 31.7873 29.6328 32.1973 29.6328C32.6072 29.6328 32.9424 29.2976 32.9424 28.8877Z"></path>
<path fill="#F9F9F9" d="M30.7051 27.1289C31.1166 27.1289 31.4502 26.7953 31.4502 26.3838C31.4502 25.9723 31.1166 25.6387 30.7051 25.6387C30.2936 25.6387 29.96 25.9723 29.96 26.3838C29.96 26.7953 30.2936 27.1289 30.7051 27.1289Z"></path>
<path fill="#F9F9F9" d="M29.2129 24.5273C29.6244 24.5273 29.958 24.1937 29.958 23.7822C29.958 23.3707 29.6244 23.0371 29.2129 23.0371C28.8014 23.0371 28.4678 23.3707 28.4678 23.7822C28.4678 24.1937 28.8014 24.5273 29.2129 24.5273Z"></path>
<path fill="#F9F9F9" d="M28.1397 21.5957C28.5512 21.5957 28.8848 21.2621 28.8848 20.8506C28.8848 20.4391 28.5512 20.1055 28.1397 20.1055C27.7281 20.1055 27.3945 20.4391 27.3945 20.8506C27.3945 21.2621 27.7281 21.5957 28.1397 21.5957Z"></path>
<path fill="#F9F9F9" d="M27.3916 18.6621C27.8032 18.6621 28.1368 18.3285 28.1368 17.917C28.1368 17.5055 27.8032 17.1719 27.3916 17.1719C26.9801 17.1719 26.6465 17.5055 26.6465 17.917C26.6465 18.3285 26.9801 18.6621 27.3916 18.6621Z"></path>
<path fill="#F9F9F9" d="M31.4502 4.1123C31.4502 4.52482 31.7854 4.85742 32.1953 4.85742C32.6053 4.85742 32.9405 4.52224 32.9405 4.1123C32.9405 3.70236 32.6053 3.36719 32.1953 3.36719C31.7854 3.36719 31.4502 3.70236 31.4502 4.1123Z"></path>
<path fill="#F9F9F9" d="M33.6885 7.36132C34.1 7.36132 34.4336 7.02772 34.4336 6.61621C34.4336 6.20469 34.1 5.87109 33.6885 5.87109C33.277 5.87109 32.9434 6.20469 32.9434 6.61621C32.9434 7.02772 33.277 7.36132 33.6885 7.36132Z"></path>
<path fill="#F9F9F9" d="M35.1807 9.96288C35.5922 9.96288 35.9258 9.62929 35.9258 9.21777C35.9258 8.80626 35.5922 8.47266 35.1807 8.47266C34.7692 8.47266 34.4355 8.80626 34.4355 9.21777C34.4355 9.62929 34.7692 9.96288 35.1807 9.96288Z"></path>
<path fill="#F9F9F9" d="M36.2539 12.8965C36.6655 12.8965 36.9991 12.5629 36.9991 12.1514C36.9991 11.7398 36.6655 11.4062 36.2539 11.4062C35.8424 11.4062 35.5088 11.7398 35.5088 12.1514C35.5088 12.5629 35.8424 12.8965 36.2539 12.8965Z"></path>
<path fill="#F9F9F9" d="M37.001 15.8262C37.4125 15.8262 37.7461 15.4926 37.7461 15.0811C37.7461 14.6695 37.4125 14.3359 37.001 14.3359C36.5895 14.3359 36.2559 14.6695 36.2559 15.0811C36.2559 15.4926 36.5895 15.8262 37.001 15.8262Z"></path>
<path fill="#F9F9F9" d="M31.4502 28.8877C31.4502 28.4752 31.7854 28.1426 32.1953 28.1426C32.6053 28.1426 32.9405 28.4778 32.9405 28.8877C32.9405 29.2976 32.6053 29.6328 32.1953 29.6328C31.7854 29.6328 31.4502 29.2976 31.4502 28.8877Z"></path>
<path fill="#F9F9F9" d="M33.6885 27.1289C34.1 27.1289 34.4336 26.7953 34.4336 26.3838C34.4336 25.9723 34.1 25.6387 33.6885 25.6387C33.277 25.6387 32.9434 25.9723 32.9434 26.3838C32.9434 26.7953 33.277 27.1289 33.6885 27.1289Z"></path>
<path fill="#F9F9F9" d="M35.1807 24.5273C35.5922 24.5273 35.9258 24.1937 35.9258 23.7822C35.9258 23.3707 35.5922 23.0371 35.1807 23.0371C34.7692 23.0371 34.4355 23.3707 34.4355 23.7822C34.4355 24.1937 34.7692 24.5273 35.1807 24.5273Z"></path>
<path fill="#F9F9F9" d="M36.2539 21.5957C36.6655 21.5957 36.9991 21.2621 36.9991 20.8506C36.9991 20.4391 36.6655 20.1055 36.2539 20.1055C35.8424 20.1055 35.5088 20.4391 35.5088 20.8506C35.5088 21.2621 35.8424 21.5957 36.2539 21.5957Z"></path>
<path fill="#F9F9F9" d="M37.001 18.6621C37.4125 18.6621 37.7461 18.3285 37.7461 17.917C37.7461 17.5055 37.4125 17.1719 37.001 17.1719C36.5895 17.1719 36.2559 17.5055 36.2559 17.917C36.2559 18.3285 36.5895 18.6621 37.001 18.6621Z"></path>
<path fill="white" d="M82.899 13.002C81.7258 13.002 80.7744 13.9533 80.7744 15.1264V32.509C80.7744 33.6821 81.7258 34.6335 82.899 34.6335C84.0721 34.6335 85.0235 33.6821 85.0235 32.509V15.1264C85.0235 13.9533 84.0721 13.002 82.899 13.002Z"></path>
<path fill="white" d="M102.782 13.0013C101.609 13.0013 100.658 13.9526 100.658 15.1257V21.69H90.6587C89.4856 21.69 88.5342 22.6413 88.5342 23.8144C88.5342 24.9875 89.4856 25.9389 90.6587 25.9389H100.658V32.5031C100.658 33.6762 101.609 34.6276 102.782 34.6276C103.955 34.6276 104.907 33.6762 104.907 32.5031V15.1206C104.907 13.9475 103.955 12.9961 102.782 12.9961V13.0013Z"></path>
<path fill="white" d="M125.931 13.9535C125.542 13.3656 124.889 13.0098 124.185 13.0021C123.489 12.9943 122.819 13.3347 122.417 13.9122L110.293 31.2948C109.62 32.2565 109.858 33.5817 110.819 34.2546C111.781 34.925 113.106 34.6903 113.779 33.7261L124.116 18.9114L133.895 33.6848C134.305 34.3036 134.981 34.6362 135.669 34.6362C136.071 34.6362 136.479 34.5227 136.84 34.283C137.82 33.6358 138.088 32.3158 137.438 31.336L125.931 13.9535Z"></path>
<path fill="white" d="M176.645 13.9535C176.255 13.3656 175.603 13.0098 174.899 13.0021C174.187 12.9943 173.533 13.3347 173.13 13.9122L161.007 31.2948C160.337 32.2565 160.571 33.5817 161.533 34.2546C162.495 34.925 163.823 34.6903 164.493 33.7261L174.829 18.9114L184.609 33.6848C185.019 34.3036 185.695 34.6362 186.383 34.6362C186.785 34.6362 187.193 34.5227 187.554 34.283C188.533 33.6358 188.801 32.3158 188.154 31.336L176.647 13.9535H176.645Z"></path>
<path fill="white" d="M150.217 21.5916C150.48 21.5916 150.74 21.5426 150.99 21.4446L162.105 17.1028C163.199 16.6749 163.74 15.4425 163.312 14.3493C162.884 13.2561 161.652 12.7147 160.558 13.1427L150.237 17.175L140.476 13.1581C139.39 12.7095 138.147 13.2277 137.701 14.3158C137.255 15.4012 137.771 16.6439 138.859 17.09L149.407 21.4317C149.665 21.5374 149.941 21.5916 150.217 21.5916Z"></path>
<path fill="white" d="M150.501 24.5977C149.327 24.5977 148.376 25.549 148.376 26.7221V32.5077C148.376 33.6808 149.327 34.6322 150.501 34.6322C151.674 34.6322 152.625 33.6808 152.625 32.5077V26.7221C152.625 25.549 151.674 24.5977 150.501 24.5977Z"></path>
<path fill="white" d="M210.839 13.002H200.915C199.741 13.002 198.79 13.9533 198.79 15.1264V32.509C198.79 33.6821 199.741 34.6335 200.915 34.6335C202.088 34.6335 203.039 33.6821 203.039 32.509V17.2535H210.839C212.012 17.2535 212.963 16.3021 212.963 15.129C212.963 13.9559 212.012 13.0045 210.839 13.0045V13.002Z"></path>
<path fill="white" d="M193.782 13.002H190.216C189.043 13.002 188.092 13.9533 188.092 15.1264C188.092 16.2995 189.043 17.2509 190.216 17.2509H193.782C194.955 17.2509 195.907 16.2995 195.907 15.1264C195.907 13.9533 194.955 13.002 193.782 13.002Z"></path>
<path fill="white" d="M223.087 13.002C221.914 13.002 220.963 13.9533 220.963 15.1264V32.509C220.963 33.6821 221.914 34.6335 223.087 34.6335C224.261 34.6335 225.212 33.6821 225.212 32.509V15.1264C225.212 13.9533 224.261 13.002 223.087 13.002Z"></path>
<path fill="white" d="M231.947 11.7465V13.8865H231.223V8.94141H233.2C234.229 8.94141 234.778 9.50088 234.778 10.2718C234.778 10.9189 234.409 11.3031 233.958 11.4372C234.332 11.5429 234.685 11.8342 234.685 12.6979V12.9171C234.685 13.2574 234.672 13.6777 234.752 13.8891H234.043C233.953 13.6751 233.956 13.2935 233.956 12.8165V12.7185C233.956 12.0456 233.767 11.7491 232.899 11.7491H231.945L231.947 11.7465ZM231.947 11.1381H232.989C233.713 11.1381 234.025 10.8648 234.025 10.3362C234.025 9.8077 233.698 9.54987 233.053 9.54987H231.947V11.1381Z"></path>
<path fill="white" d="M232.901 15.7656C230.472 15.7656 228.494 13.7906 228.494 11.3594C228.494 8.92806 230.469 6.95312 232.901 6.95312C235.332 6.95312 237.307 8.92806 237.307 11.3594C237.307 13.7906 235.332 15.7656 232.901 15.7656ZM232.901 7.80911C230.941 7.80911 229.348 9.40247 229.348 11.3619C229.348 13.3214 230.941 14.9148 232.901 14.9148C234.86 14.9148 236.453 13.3214 236.453 11.3619C236.453 9.40247 234.86 7.80911 232.901 7.80911Z"></path>
</svg>
